<svg width="60" height="74" viewBox="0 0 60 74" fill="none" xmlns="http://www.w3.org/2000/svg">
<path d="M49.661 0.503522C49.3583 0.181783 48.9387 0 48.4983 0H11.5022C11.0617 0 10.6421 0.181783 10.3394 0.503522C10.0367 0.825261 9.87979 1.25639 9.90381 1.69717C10.884 19.6309 2.98186 30.0199 1.13205 36.5335C-2.21041 48.2786 3.24291 63.4486 10.884 73.3758C11.1867 73.77 11.6559 74 12.1508 74H47.8512C48.3477 74 48.8154 73.77 49.1181 73.3758C56.3924 63.9312 62.0875 48.1386 58.8572 36.548C57.0394 29.9973 49.1133 19.7146 50.0966 1.69717C50.1223 1.25639 49.9637 0.823652 49.661 0.503522ZM52.7824 30.3207C52.9762 30.7293 53.1684 31.1299 53.3574 31.5208C54.1101 33.0812 54.7812 34.4792 55.3161 35.9801C46.1616 39.4404 37.5356 46.9192 30.0002 52.68C22.4328 46.8951 13.8324 39.4388 4.67631 35.9785C5.21604 34.4792 5.88869 33.0828 6.63822 31.5256C6.82721 31.1315 7.021 30.7309 7.21639 30.3207C14.22 33.641 22.0597 35.3913 30.0002 35.3913C37.9408 35.3913 45.7804 33.641 52.7824 30.3207ZM3.81147 39.0881C12.4839 42.4326 20.7015 49.6395 28.3987 55.4952V70.7826H12.9452C4.69553 59.7051 2.23393 47.1364 3.81147 39.0881ZM47.0553 70.7826H31.6018V55.4952C39.3533 49.5961 47.5197 42.439 56.1633 39.0977C58.0676 49.2647 53.1028 62.5734 47.0553 70.7826ZM51.0688 26.4067C51.1953 26.7301 51.3298 27.0567 51.4676 27.3864C44.8771 30.5218 37.4891 32.1739 30.0002 32.1739C22.5113 32.1739 15.1233 30.5218 8.53287 27.3864C8.66901 27.0599 8.80194 26.7349 8.93006 26.41C11.933 18.7703 13.3568 10.9761 13.1678 3.21739H46.8326C46.6437 10.9729 48.0658 18.7654 51.0688 26.4067Z" fill="#FF699F"/>
</svg>
